<?xml version="1.0" encoding="utf-8"?>
<!-- Generator: Adobe Illustrator 15.0.0, SVG Export Plug-In . SVG Version: 6.00 Build 0)  -->
<!DOCTYPE svg PUBLIC "-//W3C//DTD SVG 1.1//EN" "http://www.w3.org/Graphics/SVG/1.1/DTD/svg11.dtd">
<svg version="1.1" id="Слой_1" xmlns="http://www.w3.org/2000/svg" xmlns:xlink="http://www.w3.org/1999/xlink" x="0px" y="0px"
	 width="22.667px" height="20px" viewBox="3.333 6 22.667 20" enable-background="new 3.333 6 22.667 20" xml:space="preserve">
<g>
	<path fill="#FFFFFF" d="M16.9,7.596l-4.733,4.442h3.002v4.66h3.459v-4.66h3.002L16.9,7.596z M25.399,18.1l-2.896-1.948h-1.788
		l3.096,2.374h-3.229c-0.093,0-0.177,0.049-0.219,0.122l-0.741,2.035h-5.449l-0.741-2.035c-0.042-0.073-0.125-0.122-0.218-0.122
		H9.988l3.095-2.374h-1.787L8.399,18.1c-0.43,0.26-0.688,0.854-0.575,1.321l0.512,2.797c0.116,0.468,0.628,0.854,1.138,0.854h14.85
		c0.509,0,1.022-0.386,1.138-0.854l0.51-2.797C26.088,18.953,25.832,18.359,25.399,18.1z"/>
</g>
</svg>
